<svg width="102" height="102" viewBox="0 0 102 102" fill="none" xmlns="http://www.w3.org/2000/svg">
<path d="M102 0H0V102H102V0Z" fill="white"/>
<path d="M44.8425 81.2845H10.8365C10.3864 81.2845 10.0216 81.6493 10.0216 82.0993V91.1388C10.0216 91.5888 10.3864 91.9537 10.8365 91.9537H44.8425C45.2925 91.9537 45.6573 91.5888 45.6573 91.1388V82.0993C45.6573 81.6493 45.2925 81.2845 44.8425 81.2845Z" fill="#333333"/>
<path d="M10.0216 69.0545C10.0216 69.4266 10.1695 69.7836 10.4326 70.0467C10.6958 70.3099 11.0527 70.4578 11.4249 70.4578H44.2544C44.4393 70.4587 44.6226 70.4231 44.7936 70.353C44.9647 70.2829 45.1202 70.1796 45.2513 70.0492C45.3823 69.9188 45.4863 69.7638 45.5573 69.5931C45.6283 69.4224 45.6648 69.2394 45.6648 69.0545V61.1918C45.6657 61.0064 45.6299 60.8226 45.5593 60.651C45.4888 60.4795 45.3849 60.3236 45.2538 60.1925C45.1226 60.0613 44.9668 59.9575 44.7953 59.8869C44.6237 59.8164 44.4399 59.7806 44.2544 59.7815H23.6298C23.2576 59.7815 22.9007 59.6337 22.6375 59.3705C22.3744 59.1073 22.2265 58.7504 22.2265 58.3782V35.9182C22.2265 35.546 22.0787 35.1891 21.8155 34.9259C21.5523 34.6627 21.1954 34.5149 20.8232 34.5149H11.4249C11.0527 34.5149 10.6958 34.6627 10.4326 34.9259C10.1695 35.1891 10.0216 35.546 10.0216 35.9182V69.0545Z" fill="#333333"/>
<path d="M45.6656 19.2456V12.0306C45.6656 11.8038 45.6209 11.5793 45.5341 11.3697C45.4473 11.1602 45.3201 10.9699 45.1598 10.8095C44.9994 10.6491 44.809 10.5219 44.5995 10.4352C44.39 10.3484 44.1655 10.3037 43.9387 10.3037H11.7485C11.2905 10.3037 10.8513 10.4856 10.5274 10.8095C10.2035 11.1334 10.0216 11.5726 10.0216 12.0306V48.9866C10.0216 49.4446 10.2035 49.8838 10.5274 50.2076C10.8513 50.5315 11.2905 50.7134 11.7485 50.7134H20.4996C20.7264 50.7134 20.951 50.6688 21.1605 50.582C21.37 50.4952 21.5604 50.368 21.7207 50.2076C21.8811 50.0473 22.0083 49.8569 22.0951 49.6474C22.1819 49.4379 22.2265 49.2133 22.2265 48.9866V22.6994C22.2265 22.2414 22.4085 21.8022 22.7323 21.4783C23.0562 21.1545 23.4954 20.9725 23.9534 20.9725H43.9301C44.1575 20.9736 44.383 20.9297 44.5934 20.8434C44.8039 20.7571 44.9952 20.6301 45.1565 20.4697C45.3177 20.3092 45.4456 20.1185 45.5329 19.9084C45.6202 19.6984 45.6652 19.4731 45.6652 19.2456H45.6656Z" fill="#333333"/>
<path d="M70.2748 42.1284H78.0462C78.5042 42.1284 78.9434 42.3103 79.2673 42.6342C79.5911 42.958 79.7731 43.3973 79.7731 43.8553V70.5733H90.2511C90.7091 70.5733 91.1484 70.3914 91.4722 70.0676C91.7961 69.7437 91.978 69.3045 91.978 68.8465V33.2111C91.978 32.7531 91.7961 32.3139 91.4722 31.99C91.1484 31.6662 90.7091 31.4843 90.2511 31.4843H58.0695C57.6115 31.4843 57.1723 31.6662 56.8484 31.99C56.5246 32.3139 56.3427 32.7531 56.3427 33.2111V68.9131C56.3598 69.3595 56.5493 69.7819 56.8713 70.0916C57.1933 70.4013 57.6228 70.5741 58.0695 70.5737H66.8207C67.0475 70.5737 67.272 70.5291 67.4815 70.4423C67.6911 70.3555 67.8814 70.2283 68.0418 70.068C68.2021 69.9076 68.3293 69.7172 68.4161 69.5077C68.5029 69.2982 68.5476 69.0736 68.5476 68.8469V43.8561C68.5476 43.6293 68.5922 43.4047 68.679 43.1952C68.7658 42.9857 68.893 42.7953 69.0534 42.635C69.2137 42.4746 69.4041 42.3474 69.6136 42.2606C69.8231 42.1738 70.0477 42.1292 70.2744 42.1292L70.2748 42.1284Z" fill="#333333"/>
<path d="M91.1553 9.88022H57.1575C56.7075 9.88022 56.3427 10.245 56.3427 10.6951V19.7346C56.3427 20.1846 56.7075 20.5494 57.1575 20.5494H91.1553C91.6053 20.5494 91.9702 20.1846 91.9702 19.7346V10.6951C91.9702 10.245 91.6053 9.88022 91.1553 9.88022Z" fill="#333333"/>
<path d="M78.0462 81.442H70.2748C70.0474 81.442 69.8221 81.3971 69.6121 81.3098C69.402 81.2225 69.2113 81.0945 69.0508 80.9333C68.8904 80.7721 68.7633 80.5807 68.677 80.3703C68.5907 80.1598 68.5469 79.9343 68.548 79.7069V54.6405C68.548 54.1825 68.366 53.7432 68.0422 53.4194C67.7183 53.0955 67.2791 52.9136 66.8211 52.9136H58.0695C57.6115 52.9136 57.1723 53.0955 56.8484 53.4194C56.5246 53.7432 56.3427 54.1825 56.3427 54.6405V90.3839C56.3427 90.8419 56.5246 91.2812 56.8484 91.605C57.1723 91.9289 57.6115 92.1108 58.0695 92.1108H90.2511C90.7091 92.1108 91.1484 91.9289 91.4722 91.605C91.7961 91.2812 91.978 90.8419 91.978 90.3839V54.682C91.9758 54.2247 91.7932 53.7867 91.4698 53.4633C91.1464 53.1399 90.7084 52.9573 90.2511 52.9551H81.5004C81.0424 52.9551 80.6031 53.137 80.2793 53.4609C79.9554 53.7847 79.7735 54.224 79.7735 54.682V79.7065C79.7746 79.934 79.7307 80.1594 79.6444 80.3699C79.5581 80.5803 79.4311 80.7717 79.2706 80.9329C79.1101 81.0941 78.9194 81.2221 78.7093 81.3094C78.4993 81.3967 78.2741 81.4416 78.0466 81.4416L78.0462 81.442Z" fill="#333333"/>
</svg>
