<svg width="92" height="92" fill="none" xmlns="http://www.w3.org/2000/svg"><path d="M92 0H0v92h92V0z" fill="#18181B"/><path d="M40.446 73.315H9.774a.735.735 0 0 0-.735.735v8.154c0 .406.33.735.735.735h30.672a.735.735 0 0 0 .735-.735V74.05a.735.735 0 0 0-.735-.735zM9.04 62.284a1.266 1.266 0 0 0 1.265 1.266h29.61a1.265 1.265 0 0 0 1.273-1.266v-7.092a1.267 1.267 0 0 0-1.272-1.272H21.313a1.266 1.266 0 0 1-1.265-1.265V32.397a1.266 1.266 0 0 0-1.266-1.266h-8.477a1.266 1.266 0 0 0-1.266 1.266v29.887z" fill="#fff"/><path d="M41.189 17.359V10.85a1.557 1.557 0 0 0-1.558-1.558H10.597a1.558 1.558 0 0 0-1.558 1.558v33.333a1.557 1.557 0 0 0 1.558 1.557h7.893a1.558 1.558 0 0 0 1.558-1.557v-23.71a1.558 1.558 0 0 1 1.557-1.558h18.018a1.558 1.558 0 0 0 1.565-1.557zM63.385 37.998h7.01a1.558 1.558 0 0 1 1.557 1.558v24.098h9.451a1.557 1.557 0 0 0 1.557-1.557V29.955a1.557 1.557 0 0 0-1.557-1.557H52.376a1.557 1.557 0 0 0-1.557 1.557v32.202a1.558 1.558 0 0 0 1.557 1.498h7.894a1.557 1.557 0 0 0 1.557-1.558v-22.54a1.557 1.557 0 0 1 1.558-1.558zM82.219 8.912H51.554a.735.735 0 0 0-.735.735V17.8c0 .406.329.735.735.735h30.665a.735.735 0 0 0 .735-.735V9.647a.735.735 0 0 0-.735-.735z" fill="#fff"/><path d="M70.395 73.458h-7.01a1.556 1.556 0 0 1-1.557-1.565v-22.61a1.558 1.558 0 0 0-1.558-1.557h-7.894a1.557 1.557 0 0 0-1.557 1.558v32.239a1.557 1.557 0 0 0 1.557 1.557h29.027a1.557 1.557 0 0 0 1.557-1.557V49.32a1.565 1.565 0 0 0-1.557-1.557H73.51a1.558 1.558 0 0 0-1.558 1.557v22.571a1.558 1.558 0 0 1-1.557 1.565z" fill="#fff"/></svg>